<svg width="32" height="32" viewBox="0 0 32 32" fill="none" xmlns="http://www.w3.org/2000/svg">
<path d="M18.6615 2.67188H7.99479C7.28755 2.67188 6.60927 2.95283 6.10917 3.45292C5.60908 3.95302 5.32813 4.6313 5.32812 5.33854V26.6719C5.32813 27.3791 5.60908 28.0574 6.10917 28.5575C6.60927 29.0576 7.28755 29.3385 7.99479 29.3385H23.9948C24.702 29.3385 25.3803 29.0576 25.8804 28.5575C26.3805 28.0574 26.6615 27.3791 26.6615 26.6719V10.6719L18.6615 2.67188Z" stroke="black" stroke-width="2" stroke-linecap="round" stroke-linejoin="round"/>
<path d="M18.6719 2.67188V10.6719H26.6719" stroke="black" stroke-width="2" stroke-linecap="round" stroke-linejoin="round"/>
<path d="M21.3385 17.3281H10.6719" stroke="black" stroke-width="2" stroke-linecap="round" stroke-linejoin="round"/>
<path d="M21.3385 22.6719H10.6719" stroke="black" stroke-width="2" stroke-linecap="round" stroke-linejoin="round"/>
<path d="M13.3385 12H12.0052H10.6719" stroke="black" stroke-width="2" stroke-linecap="round" stroke-linejoin="round"/>
</svg>
