<svg width="31" height="27" viewBox="0 0 31 27" fill="none" xmlns="http://www.w3.org/2000/svg">
<path d="M13.0148 2.32377L1.36853 21.7663C1.12841 22.1821 1.00136 22.6536 1.00001 23.1337C0.998666 23.6139 1.12308 24.0861 1.36086 24.5032C1.59865 24.9204 1.94152 25.2681 2.35537 25.5116C2.76922 25.7551 3.23963 25.886 3.71978 25.8913H27.0123C27.4924 25.886 27.9628 25.7551 28.3767 25.5116C28.7905 25.2681 29.1334 24.9204 29.3712 24.5032C29.609 24.0861 29.7334 23.6139 29.732 23.1337C29.7307 22.6536 29.6036 22.1821 29.3635 21.7663L17.7173 2.32377C17.4722 1.91967 17.127 1.58556 16.7152 1.35369C16.3033 1.12181 15.8387 1 15.366 1C14.8934 1 14.4287 1.12181 14.0169 1.35369C13.605 1.58556 13.2599 1.91967 13.0148 2.32377Z" stroke="black" stroke-width="2" stroke-linecap="round" stroke-linejoin="round"/>
<path d="M15 10V15.5" stroke="black" stroke-width="2" stroke-linecap="round" stroke-linejoin="round"/>
<path d="M15 21H15.0138" stroke="black" stroke-width="2" stroke-linecap="round" stroke-linejoin="round"/>
</svg>
