<svg width="39" height="31" viewBox="0 0 39 31" fill="none" xmlns="http://www.w3.org/2000/svg">
<path d="M38 1.01625C36.3895 2.10794 34.6063 2.9429 32.7191 3.48899C31.7062 2.36981 30.3601 1.57656 28.8627 1.21654C27.3654 0.85651 25.7892 0.947073 24.3471 1.47598C22.9051 2.00488 21.6669 2.9466 20.8 4.17379C19.9331 5.40097 19.4793 6.85439 19.5 8.33749V9.95366C16.5444 10.0273 13.6158 9.3974 10.9749 8.12003C8.33398 6.84266 6.06281 4.9575 4.36364 2.63242C4.36364 2.63242 -2.36364 17.1779 12.7727 23.6426C9.30907 25.9019 5.18295 27.0348 1 26.8749C16.1364 34.9558 34.6364 26.8749 34.6364 8.28901C34.6348 7.83883 34.5898 7.38976 34.5018 6.94759C36.2183 5.3209 37.4296 3.26711 38 1.01625Z" stroke="black" stroke-width="2" stroke-linecap="round" stroke-linejoin="round"/>
</svg>
